<svg width="215" height="33" viewBox="0 0 215 33" fill="none" xmlns="http://www.w3.org/2000/svg">
<path d="M10.36 10.76C11.4 10.76 12.3467 10.88 13.2 11.12C14.08 11.3333 14.8 11.6133 15.36 11.96C16.0533 12.3867 16.5867 12.92 16.96 13.56C17.36 14.1733 17.56 14.8933 17.56 15.72C17.56 16.6533 17.2667 17.4267 16.68 18.04C16.0933 18.6267 15.3333 18.92 14.4 18.92C13.4667 18.92 12.72 18.6533 12.16 18.12C11.6 17.5867 11.32 16.8667 11.32 15.96C11.32 15.1067 11.5867 14.4 12.12 13.84C12.6533 13.2533 13.2667 12.8667 13.96 12.68C13.7467 12.4133 13.4267 12.1867 13 12C12.5733 11.8133 12.0933 11.72 11.56 11.72C10.7333 11.72 10 11.96 9.36 12.44C8.74667 12.92 8.22667 13.5867 7.8 14.44C7.37333 15.2933 7.04 16.2933 6.8 17.44C6.58667 18.5867 6.48 19.84 6.48 21.2C6.48 23.2533 6.73333 24.8667 7.24 26.04C7.77333 27.2133 8.44 28.04 9.24 28.52C10.0667 29 10.92 29.24 11.8 29.24C12.3067 29.24 12.8533 29.16 13.44 29C14.0533 28.84 14.6667 28.52 15.28 28.04C15.92 27.56 16.5067 26.88 17.04 26L17.72 26.24C17.4267 27.2267 16.9467 28.2133 16.28 29.2C15.6133 30.1867 14.7467 31 13.68 31.64C12.6133 32.2533 11.3067 32.56 9.76 32.56C8.02667 32.56 6.45333 32.1867 5.04 31.44C3.65333 30.6667 2.53333 29.4933 1.68 27.92C0.853333 26.32 0.44 24.2667 0.44 21.76C0.44 19.36 0.866667 17.3467 1.72 15.72C2.6 14.0667 3.78667 12.8267 5.28 12C6.77333 11.1733 8.46667 10.76 10.36 10.76ZM27.9238 0.719997V14.48C28.5904 13.0933 29.4838 12.1333 30.6037 11.6C31.7504 11.04 33.0304 10.76 34.4438 10.76C35.5904 10.76 36.5104 10.9067 37.2038 11.2C37.8971 11.4667 38.4438 11.84 38.8438 12.32C39.2971 12.8267 39.6171 13.48 39.8038 14.28C40.0171 15.08 40.1238 16.16 40.1238 17.52V28.28C40.1238 29.4 40.3104 30.16 40.6838 30.56C41.0838 30.96 41.7504 31.16 42.6838 31.16V32C42.1771 31.9733 41.4038 31.9467 40.3638 31.92C39.3504 31.8667 38.3638 31.84 37.4038 31.84C36.3638 31.84 35.3504 31.8667 34.3638 31.92C33.4038 31.9467 32.6838 31.9733 32.2038 32V31.16C33.0038 31.16 33.5638 30.96 33.8838 30.56C34.2038 30.16 34.3638 29.4 34.3638 28.28V15.84C34.3638 15.1733 34.2971 14.6 34.1638 14.12C34.0304 13.6133 33.7771 13.2267 33.4038 12.96C33.0571 12.6667 32.5504 12.52 31.8838 12.52C31.1638 12.52 30.4971 12.72 29.8838 13.12C29.2971 13.4933 28.8171 14.0267 28.4438 14.72C28.0971 15.4133 27.9238 16.2133 27.9238 17.12V28.28C27.9238 29.4 28.0838 30.16 28.4038 30.56C28.7238 30.96 29.2838 31.16 30.0838 31.16V32C29.6038 31.9733 28.8971 31.9467 27.9638 31.92C27.0304 31.8667 26.0838 31.84 25.1238 31.84C24.0838 31.84 23.0304 31.8667 21.9638 31.92C20.9238 31.9467 20.1371 31.9733 19.6038 32V31.16C20.5371 31.16 21.1904 30.96 21.5638 30.56C21.9638 30.16 22.1638 29.4 22.1638 28.28V5.52C22.1638 4.32 21.9771 3.44 21.6038 2.88C21.2571 2.29333 20.5904 2 19.6038 2V1.16C20.4571 1.24 21.2838 1.28 22.0838 1.28C23.1771 1.28 24.2171 1.24 25.2038 1.16C26.1904 1.05333 27.0971 0.906665 27.9238 0.719997ZM49.3397 0.999999C50.4597 0.999999 51.3397 1.28 51.9797 1.84C52.6464 2.37333 52.9797 3.12 52.9797 4.08C52.9797 5.04 52.6464 5.8 51.9797 6.36C51.3397 6.89333 50.4597 7.16 49.3397 7.16C48.2197 7.16 47.3264 6.89333 46.6597 6.36C46.0197 5.8 45.6997 5.04 45.6997 4.08C45.6997 3.12 46.0197 2.37333 46.6597 1.84C47.3264 1.28 48.2197 0.999999 49.3397 0.999999ZM52.4597 10.88V28.28C52.4597 29.4 52.6464 30.16 53.0197 30.56C53.4197 30.96 54.0864 31.16 55.0197 31.16V32C54.5397 31.9733 53.793 31.9467 52.7797 31.92C51.7664 31.8667 50.7397 31.84 49.6997 31.84C48.6597 31.84 47.6064 31.8667 46.5397 31.92C45.473 31.9467 44.673 31.9733 44.1397 32V31.16C45.073 31.16 45.7264 30.96 46.0997 30.56C46.4997 30.16 46.6997 29.4 46.6997 28.28V15.68C46.6997 14.48 46.513 13.6 46.1397 13.04C45.793 12.4533 45.1264 12.16 44.1397 12.16V11.32C44.993 11.4 45.8197 11.44 46.6197 11.44C47.7397 11.44 48.7797 11.4 49.7397 11.32C50.7264 11.2133 51.633 11.0667 52.4597 10.88ZM64.8769 4.76V11.32H69.5969V12.12H64.8769V28.28C64.8769 29.08 65.0235 29.6533 65.3169 30C65.6102 30.32 66.0502 30.48 66.6369 30.48C67.1169 30.48 67.5969 30.3067 68.0769 29.96C68.5569 29.5867 68.9835 28.96 69.3569 28.08L70.0369 28.44C69.6102 29.64 68.9569 30.6267 68.0769 31.4C67.2235 32.1733 66.0502 32.56 64.5569 32.56C63.6769 32.56 62.9035 32.44 62.2369 32.2C61.5702 31.9867 61.0102 31.6533 60.5569 31.2C59.9702 30.6133 59.5835 29.8933 59.3969 29.04C59.2102 28.16 59.1169 27.0267 59.1169 25.64V12.12H55.7569V11.32H59.1169V6.04C60.2369 6.04 61.2635 5.94667 62.1969 5.76C63.1569 5.54667 64.0502 5.21333 64.8769 4.76ZM84.5794 10.76C85.4327 10.76 86.126 10.9467 86.6594 11.32C87.1927 11.6667 87.5794 12.12 87.8194 12.68C88.086 13.24 88.2194 13.8267 88.2194 14.44C88.2194 15.4267 87.926 16.24 87.3394 16.88C86.7794 17.4933 86.0327 17.8 85.0994 17.8C84.166 17.8 83.4327 17.5733 82.8994 17.12C82.3927 16.64 82.1394 16.0133 82.1394 15.24C82.1394 14.4933 82.2994 13.88 82.6194 13.4C82.966 12.8933 83.3927 12.4667 83.8994 12.12C83.526 12.0133 83.1527 12.0267 82.7794 12.16C82.2727 12.24 81.7927 12.4533 81.3394 12.8C80.886 13.12 80.4994 13.5333 80.1794 14.04C79.8594 14.52 79.606 15.0533 79.4194 15.64C79.2327 16.2 79.1394 16.7467 79.1394 17.28V27.88C79.1394 29.16 79.446 30.0267 80.0594 30.48C80.6994 30.9333 81.646 31.16 82.8994 31.16V32C82.286 31.9733 81.3927 31.9467 80.2194 31.92C79.046 31.8667 77.8194 31.84 76.5394 31.84C75.4727 31.84 74.3927 31.8667 73.2994 31.92C72.206 31.9467 71.3794 31.9733 70.8194 32V31.16C71.7527 31.16 72.406 30.96 72.7794 30.56C73.1794 30.16 73.3794 29.4 73.3794 28.28V15.68C73.3794 14.48 73.1927 13.6 72.8194 13.04C72.4727 12.4533 71.806 12.16 70.8194 12.16V11.32C71.6727 11.4 72.4994 11.44 73.2994 11.44C74.4194 11.44 75.4594 11.4 76.4194 11.32C77.406 11.2133 78.3127 11.0667 79.1394 10.88V14.6C79.4594 13.88 79.886 13.2267 80.4194 12.64C80.9527 12.0533 81.566 11.6 82.2594 11.28C82.9527 10.9333 83.726 10.76 84.5794 10.76ZM95.0113 32.28C93.8113 32.28 92.8113 32.0533 92.0113 31.6C91.2113 31.1467 90.6246 30.5467 90.2513 29.8C89.8779 29.0267 89.6913 28.1867 89.6913 27.28C89.6913 26.1333 89.9446 25.2 90.4513 24.48C90.9846 23.76 91.6646 23.1733 92.4913 22.72C93.3179 22.2667 94.1846 21.8933 95.0913 21.6C96.0246 21.3067 96.9046 21.0267 97.7313 20.76C98.5846 20.4667 99.2646 20.1333 99.7713 19.76C100.305 19.36 100.571 18.8533 100.571 18.24V15.12C100.571 14.4267 100.451 13.8133 100.211 13.28C99.9979 12.72 99.6513 12.2933 99.1713 12C98.7179 11.7067 98.1179 11.56 97.3713 11.56C96.8379 11.56 96.3046 11.64 95.7713 11.8C95.2379 11.9333 94.7979 12.1733 94.4513 12.52C95.1979 12.7867 95.7713 13.2 96.1713 13.76C96.5979 14.2933 96.8113 14.9067 96.8113 15.6C96.8113 16.5067 96.4913 17.2267 95.8513 17.76C95.2379 18.2933 94.5046 18.56 93.6513 18.56C92.6913 18.56 91.9579 18.2667 91.4513 17.68C90.9713 17.0667 90.7313 16.3333 90.7313 15.48C90.7313 14.7067 90.9179 14.0667 91.2913 13.56C91.6913 13.0533 92.2379 12.5733 92.9313 12.12C93.6779 11.6933 94.5713 11.36 95.6113 11.12C96.6779 10.88 97.8246 10.76 99.0513 10.76C100.278 10.76 101.385 10.8933 102.371 11.16C103.358 11.4 104.185 11.8533 104.851 12.52C105.465 13.1333 105.865 13.8933 106.051 14.8C106.238 15.68 106.331 16.8 106.331 18.16V29.04C106.331 29.7067 106.398 30.1733 106.531 30.44C106.665 30.68 106.891 30.8 107.211 30.8C107.451 30.8 107.678 30.7333 107.891 30.6C108.131 30.4667 108.385 30.3067 108.651 30.12L109.051 30.8C108.491 31.28 107.838 31.6533 107.091 31.92C106.371 32.16 105.558 32.28 104.651 32.28C103.665 32.28 102.878 32.1467 102.291 31.88C101.705 31.5867 101.278 31.2 101.011 30.72C100.771 30.24 100.651 29.68 100.651 29.04C100.011 30.0533 99.2379 30.8533 98.3313 31.44C97.4246 32 96.3179 32.28 95.0113 32.28ZM97.8513 29.72C98.3846 29.72 98.8646 29.6 99.2913 29.36C99.7446 29.0933 100.171 28.6667 100.571 28.08V19.88C100.331 20.28 99.9979 20.64 99.5713 20.96C99.1446 21.28 98.6913 21.6133 98.2113 21.96C97.7313 22.28 97.2646 22.64 96.8113 23.04C96.3846 23.44 96.0379 23.9333 95.7713 24.52C95.5046 25.1067 95.3713 25.8133 95.3713 26.64C95.3713 27.68 95.5979 28.4533 96.0513 28.96C96.5046 29.4667 97.1046 29.72 97.8513 29.72ZM118.114 10.76C119.234 10.76 120.208 10.9067 121.034 11.2C121.888 11.4667 122.501 11.7333 122.874 12C123.781 12.6133 124.341 12.2133 124.554 10.8H125.394C125.341 11.5467 125.301 12.4667 125.274 13.56C125.248 14.6267 125.234 16.0533 125.234 17.84H124.394C124.261 16.8533 124.008 15.88 123.634 14.92C123.261 13.96 122.714 13.1733 121.994 12.56C121.301 11.9467 120.394 11.64 119.274 11.64C118.501 11.64 117.848 11.8667 117.314 12.32C116.781 12.7467 116.514 13.3733 116.514 14.2C116.514 15 116.754 15.7067 117.234 16.32C117.714 16.9067 118.328 17.48 119.074 18.04C119.848 18.5733 120.648 19.1467 121.474 19.76C122.354 20.4267 123.154 21.0933 123.874 21.76C124.594 22.4 125.168 23.1067 125.594 23.88C126.021 24.6533 126.234 25.5733 126.234 26.64C126.234 27.84 125.888 28.8933 125.194 29.8C124.501 30.68 123.581 31.36 122.434 31.84C121.314 32.32 120.061 32.56 118.674 32.56C117.874 32.56 117.154 32.48 116.514 32.32C115.901 32.16 115.368 31.96 114.914 31.72C114.568 31.56 114.234 31.4133 113.914 31.28C113.621 31.12 113.341 30.9867 113.074 30.88C112.808 30.8 112.568 30.8933 112.354 31.16C112.168 31.4267 112.021 31.8 111.914 32.28H111.074C111.128 31.4267 111.168 30.3867 111.194 29.16C111.221 27.9333 111.234 26.3067 111.234 24.28H112.074C112.234 25.72 112.528 27 112.954 28.12C113.381 29.2133 113.954 30.08 114.674 30.72C115.421 31.3333 116.354 31.64 117.474 31.64C117.928 31.64 118.368 31.5467 118.794 31.36C119.221 31.1733 119.568 30.8667 119.834 30.44C120.128 30.0133 120.274 29.4667 120.274 28.8C120.274 27.6267 119.888 26.6533 119.114 25.88C118.368 25.1067 117.408 24.2667 116.234 23.36C115.381 22.6667 114.568 21.9867 113.794 21.32C113.048 20.6267 112.434 19.88 111.954 19.08C111.474 18.2533 111.234 17.32 111.234 16.28C111.234 15.08 111.554 14.0667 112.194 13.24C112.834 12.4133 113.674 11.8 114.714 11.4C115.781 10.9733 116.914 10.76 118.114 10.76ZM136.791 0.719997V14.48C137.458 13.0933 138.351 12.1333 139.471 11.6C140.618 11.04 141.898 10.76 143.311 10.76C144.458 10.76 145.378 10.9067 146.071 11.2C146.764 11.4667 147.311 11.84 147.711 12.32C148.164 12.8267 148.484 13.48 148.671 14.28C148.884 15.08 148.991 16.16 148.991 17.52V28.28C148.991 29.4 149.178 30.16 149.551 30.56C149.951 30.96 150.618 31.16 151.551 31.16V32C151.044 31.9733 150.271 31.9467 149.231 31.92C148.218 31.8667 147.231 31.84 146.271 31.84C145.231 31.84 144.218 31.8667 143.231 31.92C142.271 31.9467 141.551 31.9733 141.071 32V31.16C141.871 31.16 142.431 30.96 142.751 30.56C143.071 30.16 143.231 29.4 143.231 28.28V15.84C143.231 15.1733 143.164 14.6 143.031 14.12C142.898 13.6133 142.644 13.2267 142.271 12.96C141.924 12.6667 141.418 12.52 140.751 12.52C140.031 12.52 139.364 12.72 138.751 13.12C138.164 13.4933 137.684 14.0267 137.311 14.72C136.964 15.4133 136.791 16.2133 136.791 17.12V28.28C136.791 29.4 136.951 30.16 137.271 30.56C137.591 30.96 138.151 31.16 138.951 31.16V32C138.471 31.9733 137.764 31.9467 136.831 31.92C135.898 31.8667 134.951 31.84 133.991 31.84C132.951 31.84 131.898 31.8667 130.831 31.92C129.791 31.9467 129.004 31.9733 128.471 32V31.16C129.404 31.16 130.058 30.96 130.431 30.56C130.831 30.16 131.031 29.4 131.031 28.28V5.52C131.031 4.32 130.844 3.44 130.471 2.88C130.124 2.29333 129.458 2 128.471 2V1.16C129.324 1.24 130.151 1.28 130.951 1.28C132.044 1.28 133.084 1.24 134.071 1.16C135.058 1.05333 135.964 0.906665 136.791 0.719997ZM158.527 32.28C157.327 32.28 156.327 32.0533 155.527 31.6C154.727 31.1467 154.14 30.5467 153.767 29.8C153.394 29.0267 153.207 28.1867 153.207 27.28C153.207 26.1333 153.46 25.2 153.967 24.48C154.5 23.76 155.18 23.1733 156.007 22.72C156.834 22.2667 157.7 21.8933 158.607 21.6C159.54 21.3067 160.42 21.0267 161.247 20.76C162.1 20.4667 162.78 20.1333 163.287 19.76C163.82 19.36 164.087 18.8533 164.087 18.24V15.12C164.087 14.4267 163.967 13.8133 163.727 13.28C163.514 12.72 163.167 12.2933 162.687 12C162.234 11.7067 161.634 11.56 160.887 11.56C160.354 11.56 159.82 11.64 159.287 11.8C158.754 11.9333 158.314 12.1733 157.967 12.52C158.714 12.7867 159.287 13.2 159.687 13.76C160.114 14.2933 160.327 14.9067 160.327 15.6C160.327 16.5067 160.007 17.2267 159.367 17.76C158.754 18.2933 158.02 18.56 157.167 18.56C156.207 18.56 155.474 18.2667 154.967 17.68C154.487 17.0667 154.247 16.3333 154.247 15.48C154.247 14.7067 154.434 14.0667 154.807 13.56C155.207 13.0533 155.754 12.5733 156.447 12.12C157.194 11.6933 158.087 11.36 159.127 11.12C160.194 10.88 161.34 10.76 162.567 10.76C163.794 10.76 164.9 10.8933 165.887 11.16C166.874 11.4 167.7 11.8533 168.367 12.52C168.98 13.1333 169.38 13.8933 169.567 14.8C169.754 15.68 169.847 16.8 169.847 18.16V29.04C169.847 29.7067 169.914 30.1733 170.047 30.44C170.18 30.68 170.407 30.8 170.727 30.8C170.967 30.8 171.194 30.7333 171.407 30.6C171.647 30.4667 171.9 30.3067 172.167 30.12L172.567 30.8C172.007 31.28 171.354 31.6533 170.607 31.92C169.887 32.16 169.074 32.28 168.167 32.28C167.18 32.28 166.394 32.1467 165.807 31.88C165.22 31.5867 164.794 31.2 164.527 30.72C164.287 30.24 164.167 29.68 164.167 29.04C163.527 30.0533 162.754 30.8533 161.847 31.44C160.94 32 159.834 32.28 158.527 32.28ZM161.367 29.72C161.9 29.72 162.38 29.6 162.807 29.36C163.26 29.0933 163.687 28.6667 164.087 28.08V19.88C163.847 20.28 163.514 20.64 163.087 20.96C162.66 21.28 162.207 21.6133 161.727 21.96C161.247 22.28 160.78 22.64 160.327 23.04C159.9 23.44 159.554 23.9333 159.287 24.52C159.02 25.1067 158.887 25.8133 158.887 26.64C158.887 27.68 159.114 28.4533 159.567 28.96C160.02 29.4667 160.62 29.72 161.367 29.72ZM181.87 0.679998V28.28C181.87 29.4 182.057 30.16 182.43 30.56C182.83 30.96 183.497 31.16 184.43 31.16V32C183.923 31.9733 183.163 31.9467 182.15 31.92C181.137 31.8667 180.11 31.84 179.07 31.84C178.03 31.84 176.977 31.8667 175.91 31.92C174.87 31.9467 174.083 31.9733 173.55 32V31.16C174.483 31.16 175.137 30.96 175.51 30.56C175.91 30.16 176.11 29.4 176.11 28.28V5.48C176.11 4.28 175.923 3.4 175.55 2.84C175.203 2.25333 174.537 1.96 173.55 1.96V1.12C174.403 1.2 175.23 1.24 176.03 1.24C177.123 1.24 178.163 1.2 179.15 1.12C180.137 1.01333 181.043 0.866665 181.87 0.679998ZM191.652 32.28C190.452 32.28 189.452 32.0533 188.652 31.6C187.852 31.1467 187.265 30.5467 186.892 29.8C186.519 29.0267 186.332 28.1867 186.332 27.28C186.332 26.1333 186.585 25.2 187.092 24.48C187.625 23.76 188.305 23.1733 189.132 22.72C189.959 22.2667 190.825 21.8933 191.732 21.6C192.665 21.3067 193.545 21.0267 194.372 20.76C195.225 20.4667 195.905 20.1333 196.412 19.76C196.945 19.36 197.212 18.8533 197.212 18.24V15.12C197.212 14.4267 197.092 13.8133 196.852 13.28C196.639 12.72 196.292 12.2933 195.812 12C195.359 11.7067 194.759 11.56 194.012 11.56C193.479 11.56 192.945 11.64 192.412 11.8C191.879 11.9333 191.439 12.1733 191.092 12.52C191.839 12.7867 192.412 13.2 192.812 13.76C193.239 14.2933 193.452 14.9067 193.452 15.6C193.452 16.5067 193.132 17.2267 192.492 17.76C191.879 18.2933 191.145 18.56 190.292 18.56C189.332 18.56 188.599 18.2667 188.092 17.68C187.612 17.0667 187.372 16.3333 187.372 15.48C187.372 14.7067 187.559 14.0667 187.932 13.56C188.332 13.0533 188.879 12.5733 189.572 12.12C190.319 11.6933 191.212 11.36 192.252 11.12C193.319 10.88 194.465 10.76 195.692 10.76C196.919 10.76 198.025 10.8933 199.012 11.16C199.999 11.4 200.825 11.8533 201.492 12.52C202.105 13.1333 202.505 13.8933 202.692 14.8C202.879 15.68 202.972 16.8 202.972 18.16V29.04C202.972 29.7067 203.039 30.1733 203.172 30.44C203.305 30.68 203.532 30.8 203.852 30.8C204.092 30.8 204.319 30.7333 204.532 30.6C204.772 30.4667 205.025 30.3067 205.292 30.12L205.692 30.8C205.132 31.28 204.479 31.6533 203.732 31.92C203.012 32.16 202.199 32.28 201.292 32.28C200.305 32.28 199.519 32.1467 198.932 31.88C198.345 31.5867 197.919 31.2 197.652 30.72C197.412 30.24 197.292 29.68 197.292 29.04C196.652 30.0533 195.879 30.8533 194.972 31.44C194.065 32 192.959 32.28 191.652 32.28ZM194.492 29.72C195.025 29.72 195.505 29.6 195.932 29.36C196.385 29.0933 196.812 28.6667 197.212 28.08V19.88C196.972 20.28 196.639 20.64 196.212 20.96C195.785 21.28 195.332 21.6133 194.852 21.96C194.372 22.28 193.905 22.64 193.452 23.04C193.025 23.44 192.679 23.9333 192.412 24.52C192.145 25.1067 192.012 25.8133 192.012 26.64C192.012 27.68 192.239 28.4533 192.692 28.96C193.145 29.4667 193.745 29.72 194.492 29.72ZM211.275 26.4C212.315 26.4 213.142 26.68 213.755 27.24C214.368 27.7733 214.675 28.52 214.675 29.48C214.675 30.44 214.368 31.2 213.755 31.76C213.142 32.2933 212.315 32.56 211.275 32.56C210.235 32.56 209.408 32.2933 208.795 31.76C208.182 31.2 207.875 30.44 207.875 29.48C207.875 28.52 208.182 27.7733 208.795 27.24C209.408 26.68 210.235 26.4 211.275 26.4Z" fill="black"/>
</svg>
